<svg width="200" height="200" viewBox="0 0 200 200" fill="none" xmlns="http://www.w3.org/2000/svg">
<circle cx="100" cy="100" r="90" fill="#DFE0EB"/>
<circle cx="100" cy="100" r="99.5" stroke="#DFE0EB"/>
<path d="M112 95.0312V109.094C112 110.388 110.95 111.438 109.656 111.438H89.3438C88.0498 111.438 87 110.388 87 109.094V95.0312C87 93.7373 88.0498 92.6875 89.3438 92.6875H93.6406L94.2412 91.0811C94.583 90.168 95.457 89.5625 96.4336 89.5625H102.562C103.538 89.5625 104.412 90.168 104.754 91.0811L105.359 92.6875H109.656C110.95 92.6875 112 93.7373 112 95.0312ZM105.359 102.062C105.359 98.8301 102.732 96.2031 99.5 96.2031C96.2676 96.2031 93.6406 98.8301 93.6406 102.062C93.6406 105.295 96.2676 107.922 99.5 107.922C102.732 107.922 105.359 105.295 105.359 102.062ZM103.797 102.062C103.797 104.431 101.868 106.359 99.5 106.359C97.1318 106.359 95.2031 104.431 95.2031 102.062C95.2031 99.6943 97.1318 97.7656 99.5 97.7656C101.868 97.7656 103.797 99.6943 103.797 102.062Z" fill="#3E8080"/>
</svg>
