<svg width="1070" height="420" viewBox="0 0 1070 420" fill="none" xmlns="http://www.w3.org/2000/svg">
<path d="M299.961 268.607L300 261.732L299.725 261.378C298.664 238.238 292.692 216.983 281.729 197.693C269.587 176.321 253.635 158.72 233.949 144.851C221.965 136.837 208.88 130.551 194.735 125.915C180.589 121.318 165.658 119 149.98 119C129.666 119 110.452 122.85 92.2986 130.551C74.1454 138.251 58.2318 148.859 44.5187 162.373C30.8448 175.928 19.9607 191.761 11.9843 209.911C3.96858 228.062 0 247.745 0 269C0 289.94 3.92928 309.466 11.7485 327.617C19.6071 345.768 30.3733 361.601 44.0472 375.155C57.721 388.709 73.6739 399.395 91.8271 407.253C109.98 415.111 129.352 419 149.98 419C170.295 419 189.587 415.071 207.898 407.253C221.493 401.438 233.635 393.895 244.558 384.898L196.228 335.278C195.796 335.553 195.403 335.907 194.971 336.182C181.572 345.257 166.601 349.775 149.98 349.775C138.585 349.775 127.976 347.614 118.153 343.293C108.291 338.971 99.7643 333.235 92.5344 325.967C85.3045 318.738 79.6071 310.213 75.442 300.352C71.277 290.53 69.1945 280.04 69.1945 268.961C69.1945 257.882 71.277 247.431 75.442 237.57C79.6071 227.709 85.3438 219.105 92.7308 211.719C100.118 204.333 108.723 198.557 118.585 194.393C128.409 190.228 138.9 188.185 149.98 188.185C160.747 188.185 171.002 190.228 180.668 194.393C190.373 198.557 198.9 204.254 206.287 211.483C212.613 217.69 218.939 224.919 223.143 233.877H100.589V299.526H299.686L299.921 269.786C299.921 269.511 299.921 269.196 299.921 268.882C299.961 268.882 299.961 268.764 299.961 268.607Z" fill="#FEFFFF"/>
<path d="M548.781 0H618V269.567C618 290.866 613.995 310.709 605.986 329.055C597.976 347.402 587.101 363.307 573.477 376.732C559.735 390.157 543.834 400.748 525.695 408.425C507.517 416.181 488.318 420 468.02 420C447.721 420 428.365 416.063 410.108 408.189C391.773 400.354 375.833 389.606 362.327 376.024C348.781 362.441 338.024 346.575 330.014 328.346C322.005 310.157 318 290.551 318 269.567C318 248.898 321.926 229.409 329.779 211.024C337.631 192.677 348.389 176.693 362.091 163.11C375.793 149.528 391.695 138.819 409.834 130.945C428.012 123.11 447.368 119.134 468.02 119.134C482.782 119.134 496.995 121.22 510.697 125.394C524.4 129.528 537.081 135.354 548.781 142.756V0ZM542.303 301.024C546.583 290.866 548.742 280.394 548.742 269.567C548.742 258.465 546.661 248.031 542.539 238.307C538.377 228.583 532.684 220.039 525.46 212.638C518.196 205.236 509.676 199.37 499.822 195.039C490.006 190.748 479.366 188.583 467.98 188.583C456.594 188.583 445.994 190.748 436.139 195.039C426.324 199.37 417.725 205.236 410.54 212.638C403.316 220.039 397.623 228.701 393.461 238.543C389.3 248.425 387.258 258.78 387.258 269.567C387.258 281.26 389.496 292.087 393.932 301.968C398.369 311.85 404.337 320.354 411.718 327.402C419.099 334.528 427.619 340.157 437.317 344.291C447.015 348.465 457.223 350.512 468.02 350.512C484.942 350.512 500.018 345.905 513.249 336.654C526.441 327.402 536.139 315.551 542.303 301.024Z" fill="#FEFFFF"/>
<path d="M878.569 0H948V269.567C948 290.866 943.983 310.709 935.949 329.055C927.915 347.402 917.006 363.307 903.301 376.732C889.556 390.157 873.567 400.748 855.372 408.425C837.138 416.181 817.88 420 797.48 420C777.12 420 757.743 416.063 739.391 408.189C721.039 400.354 705.05 389.606 691.463 376.024C677.876 362.441 667.085 346.575 659.051 328.346C651.017 310.157 647 290.551 647 269.567C647 248.898 650.938 229.409 658.815 211.024C666.652 192.677 677.482 176.693 691.226 163.11C704.971 149.528 720.921 138.819 739.116 130.945C757.35 123.11 776.765 119.134 797.441 119.134C812.249 119.134 826.505 121.22 840.25 125.394C853.994 129.528 866.715 135.354 878.451 142.756V0H878.569ZM872.11 301.024C876.403 290.866 878.569 280.394 878.569 269.567C878.569 258.465 876.481 248.031 872.307 238.307C868.132 228.583 862.422 220.039 855.176 212.638C847.929 205.236 839.344 199.37 829.459 195.039C819.613 190.748 808.941 188.583 797.52 188.583C786.099 188.583 775.466 190.748 765.581 195.039C755.735 199.37 747.11 205.236 739.903 212.638C732.657 220.039 726.946 228.701 722.772 238.543C718.597 248.425 716.549 258.78 716.549 269.567C716.549 281.26 718.794 292.087 723.244 301.968C727.695 311.85 733.681 320.354 741.085 327.402C748.489 334.528 757.074 340.157 766.762 344.291C776.489 348.465 786.768 350.512 797.559 350.512C814.533 350.512 829.656 345.905 842.928 336.654C856.199 327.402 865.927 315.551 872.11 301.024Z" fill="#FEFFFF"/>
<path d="M991 122H1060V415H991V122Z" fill="#FEFFFF"/>
<path d="M1026.5 4C1050.63 4 1070 23.4077 1070 47.5C1070 71.6317 1050.59 91 1026.5 91C1002.41 91 983 71.5923 983 47.5C983 23.4077 1002.41 4 1026.5 4Z" fill="#FEFFFF"/>
</svg>
