<svg width="40" height="40" viewBox="0 0 40 40" fill="none" xmlns="http://www.w3.org/2000/svg">
<circle cx="20" cy="20.0002" r="19.8" fill="#DFE0EB"/>
<g clip-path="url(#clip0_4231_5208)">
<path d="M20.275 21.1343C22.41 21.1343 24.1422 19.4021 24.1422 17.2671C24.1422 15.1321 22.41 13.3999 20.275 13.3999C18.14 13.3999 16.4078 15.1321 16.4078 17.2671C16.4078 19.4021 18.14 21.1343 20.275 21.1343ZM23.7125 21.9937H22.2328C21.6366 22.2676 20.9733 22.4233 20.275 22.4233C19.5768 22.4233 18.9161 22.2676 18.3173 21.9937H16.8375C14.9388 21.9937 13.4 23.5325 13.4 25.4312V25.8608C13.4 26.5725 13.9774 27.1499 14.6891 27.1499H25.861C26.5726 27.1499 27.15 26.5725 27.15 25.8608V25.4312C27.15 23.5325 25.6112 21.9937 23.7125 21.9937Z" fill="white"/>
</g>
<defs>
<clipPath id="clip0_4231_5208">
<rect width="13.75" height="13.75" fill="white" transform="translate(13.4 13.3999)"/>
</clipPath>
</defs>
</svg>
