<svg width="44" height="44" viewBox="0 0 44 44" fill="none" xmlns="http://www.w3.org/2000/svg">
<circle cx="22" cy="22" r="21.5" stroke="#DFE0EB"/>
<circle cx="22" cy="22.0002" r="19.8" fill="#DFE0EB"/>
<g clip-path="url(#clip0_4231_5204)">
<path d="M22.275 23.1343C24.41 23.1343 26.1422 21.4021 26.1422 19.2671C26.1422 17.1321 24.41 15.3999 22.275 15.3999C20.14 15.3999 18.4078 17.1321 18.4078 19.2671C18.4078 21.4021 20.14 23.1343 22.275 23.1343ZM25.7125 23.9937H24.2328C23.6366 24.2676 22.9733 24.4233 22.275 24.4233C21.5768 24.4233 20.9161 24.2676 20.3173 23.9937H18.8375C16.9388 23.9937 15.4 25.5325 15.4 27.4312V27.8608C15.4 28.5725 15.9774 29.1499 16.6891 29.1499H27.861C28.5726 29.1499 29.15 28.5725 29.15 27.8608V27.4312C29.15 25.5325 27.6112 23.9937 25.7125 23.9937Z" fill="white"/>
</g>
<defs>
<clipPath id="clip0_4231_5204">
<rect width="13.75" height="13.75" fill="white" transform="translate(15.4 15.3999)"/>
</clipPath>
</defs>
</svg>
