<svg width="527" height="429" viewBox="0 0 527 429" fill="none" xmlns="http://www.w3.org/2000/svg">
<circle opacity="0.1" cx="229.957" cy="207.635" r="206.717" fill="url(#paint0_linear)"/>
<ellipse opacity="0.05" cx="438.5" cy="341" rx="88.5" ry="88" fill="url(#paint1_linear)"/>
<circle opacity="0.05" cx="75.8369" cy="77.9785" r="75.8369" fill="url(#paint2_linear)"/>
<circle opacity="0.15" cx="95" cy="405" r="14" fill="url(#paint3_linear)"/>
<path d="M110.1 216.998C107.174 216.302 102.716 209.057 99.0942 208.639C95.3327 208.361 90.8746 212.679 87.1131 209.893C83.3516 207.107 82.9337 195.265 78.6149 192.897C74.2962 190.528 71.0919 193.175 69.4202 190.389C67.7484 187.603 69.9774 178.129 66.0766 174.786C62.1758 171.442 58.9716 172.557 58.275 169.631C57.4391 166.706 59.8075 162.108 56.7425 157.65C53.6776 153.331 52.4238 147.619 57.1605 150.266C61.8972 152.913 66.0766 156.118 70.674 155.142C75.4107 154.028 74.5748 162.108 77.9184 164.059C81.2619 166.009 86.2772 162.805 88.9242 164.477C91.5712 166.148 91.8498 175.343 94.0789 176.179C96.3079 177.015 105.363 170.746 109.682 172.557C113.862 174.368 108.707 185.792 113.304 187.464C117.902 189.135 123.335 191.364 123.335 191.364L110.1 216.998Z" fill="#B8E3C2"/>
<path d="M63.8467 161.272C63.8467 161.272 69.0013 178.129 114.697 207.385L117.622 202.649C117.622 202.649 80.5644 186.628 63.8467 161.272Z" fill="#9ECDBB"/>
<path d="M60.3651 248.065C50.1951 254.892 44.3439 288.606 64.1265 289.303C77.7794 289.721 83.0733 277.461 78.058 273.699C65.2411 264.087 50.1951 297.801 65.2411 304.627C72.3461 307.831 79.4512 302.677 87.2528 296.547C99.0945 286.934 112.19 274.814 128.351 285.959" stroke="#D8171C" stroke-width="2.44635" stroke-miterlimit="10"/>
<path d="M308.068 352.969C308.068 355.616 299.151 357.845 288.146 357.845C277.14 357.845 268.224 355.616 268.224 352.969C268.224 350.322 277.14 348.093 288.146 348.093C299.151 348.093 308.068 350.322 308.068 352.969Z" fill="#D7D7D7"/>
<path d="M347.493 342.521H121.246C113.305 342.521 105.503 341.406 97.9803 339.038L62.873 328.311H409.488L368.947 339.595C361.842 341.546 354.737 342.521 347.493 342.521Z" fill="#D7D7D7"/>
<path d="M356.968 167.402L251.367 108.89C240.361 102.899 227.126 102.899 216.121 108.89L110.381 167.402C105.783 169.91 102.579 174.925 102.579 180.498V327.614C102.579 335.834 109.266 342.66 117.625 342.66H349.863C358.082 342.66 364.909 335.973 364.909 327.614V180.637C364.909 174.925 361.704 169.91 356.968 167.402Z" fill="#D49500"/>
<path d="M251.088 103.317C252.342 100.67 260.143 97.3269 260.979 93.7048C261.815 90.0826 258.332 84.9279 261.536 81.7237C264.88 78.3801 276.582 79.9126 279.647 76.0118C282.712 72.111 280.483 68.4888 283.548 67.235C286.613 65.9811 295.529 69.6033 299.43 66.3991C303.331 63.0555 302.774 59.712 305.699 59.4333C308.764 59.1547 312.944 62.0803 317.68 59.712C322.556 57.3436 328.268 57.065 324.925 61.2444C321.581 65.4239 317.68 69.046 317.959 73.9221C318.238 78.7981 310.436 76.569 308.068 79.634C305.699 82.6989 308.068 87.9928 305.978 90.5005C303.888 92.8689 294.833 91.7543 293.579 93.8441C292.325 95.9338 297.201 105.825 294.833 109.726C292.464 113.627 281.876 106.661 279.508 110.98C277.14 115.159 274.075 120.314 274.075 120.314L251.088 103.317Z" fill="#B8E3C2"/>
<path d="M313.36 66.2598C313.36 66.2598 295.946 68.6281 259.863 109.308L264.043 112.93C264.043 112.93 285.776 78.9374 313.36 66.2598Z" fill="#9ECDBB"/>
<path d="M334.816 305.881H132.531V116.692C132.531 107.218 140.194 99.556 149.667 99.556H317.541C327.015 99.556 334.677 107.218 334.677 116.692V305.881H334.816Z" fill="white"/>
<path d="M309.32 130.066H158.303V131.18H309.32V130.066Z" fill="#C1C1C2"/>
<path d="M309.32 146.644H158.303V147.759H309.32V146.644Z" fill="#C1C1C2"/>
<path d="M309.32 163.362H158.303V164.477H309.32V163.362Z" fill="#C1C1C2"/>
<path d="M309.32 180.08H158.303V181.194H309.32V180.08Z" fill="#C1C1C2"/>
<path d="M309.32 196.798H158.303V197.912H309.32V196.798Z" fill="#C1C1C2"/>
<path d="M309.32 213.376H158.303V214.491H309.32V213.376Z" fill="#C1C1C2"/>
<path d="M309.32 230.094H158.303V231.208H309.32V230.094Z" fill="#C1C1C2"/>
<path d="M309.32 246.812H158.303V247.926H309.32V246.812Z" fill="#C1C1C2"/>
<path d="M342.897 196.38L232.56 306.717C232.281 306.995 231.863 306.995 231.724 306.717L121.247 196.38C116.371 191.504 109.684 188.717 102.579 188.717V327.614C102.579 335.834 109.266 342.66 117.625 342.66H349.863C358.082 342.66 364.909 335.973 364.909 327.614V188.717H361.565C354.46 188.717 347.773 191.504 342.897 196.38Z" fill="#FFB700"/>
<path d="M271.011 268.266L232.42 306.856C232.142 307.135 231.724 307.135 231.585 306.856L193.552 268.823L102.579 322.459V327.753C102.579 335.973 109.266 342.799 117.625 342.799H349.863C358.082 342.799 364.909 336.112 364.909 327.753V323.017L271.011 268.266Z" fill="#E7E7E6"/>
<path d="M364.909 327.614V323.156L251.367 260.464C240.361 254.474 227.126 254.474 216.121 260.464L102.579 323.295V327.753C102.579 335.973 109.266 342.799 117.625 342.799H349.863C358.082 342.66 364.909 335.973 364.909 327.614Z" fill="#FFC400"/>
<path d="M307.233 324.967C307.233 327.753 307.651 323.156 316.288 323.156C322.836 323.156 316.845 340.152 306.536 340.71C306.536 340.71 304.307 341.406 304.725 344.192C305.143 346.979 323.533 340.431 323.533 325.246C323.533 315.215 307.233 317.165 307.233 324.967Z" fill="#FEFEFE"/>
<path d="M263.349 314.797C263.349 314.797 264.602 354.362 289.54 354.362C312.109 354.362 314.616 314.797 314.616 314.797H263.349Z" fill="#FEFEFE"/>
<path d="M271.011 319.255C268.503 318.977 266.692 318.559 265.438 318.141C266.414 327.753 270.872 354.641 289.401 354.502C290.654 354.502 291.769 354.362 292.883 354.084C276.305 351.019 272.126 328.868 271.011 319.255Z" fill="#EAF4FF"/>
<path d="M314.616 314.797C314.616 317.026 303.193 318.837 288.983 318.837C274.772 318.837 263.349 317.026 263.349 314.797C263.349 312.568 274.772 310.757 288.983 310.757C303.053 310.757 314.616 312.568 314.616 314.797Z" fill="#EAF4FF"/>
<path d="M288.982 318.001C301.601 318.001 311.83 316.567 311.83 314.797C311.83 313.027 301.601 311.593 288.982 311.593C276.364 311.593 266.135 313.027 266.135 314.797C266.135 316.567 276.364 318.001 288.982 318.001Z" fill="#FEFEFE"/>
<path d="M271.149 316.887C275.329 317.583 281.737 318.001 288.842 318.001C295.947 318.001 302.356 317.583 306.535 316.887C302.356 316.19 295.947 315.772 288.842 315.772C281.737 315.633 275.329 316.051 271.149 316.887Z" fill="#606060"/>
<path d="M132.113 144.276C108.569 146.087 85.8608 169.492 81.4027 174.229C76.8053 178.826 54.6543 202.788 53.9577 226.332C53.5398 240.124 63.0132 253.499 68.7251 257.957L95.1949 224.661C95.1949 224.661 90.8761 220.342 81.542 217.834C81.542 217.834 83.9104 205.853 98.2598 190.807C111.773 176.597 124.869 172.418 124.869 172.418C127.934 181.612 132.392 185.652 132.392 185.652L164.434 157.511C159.558 152.078 145.766 143.161 132.113 144.276Z" fill="#D8171C"/>
<path d="M94.9154 224.382L90.1787 220.899C87.1138 218.531 78.6156 223.964 71.3712 233.298C64.1269 242.632 60.7833 252.106 63.8482 254.474L68.5849 257.957L94.9154 224.382Z" fill="#A60006"/>
<path d="M87.393 245.558C80.1487 254.892 71.7898 260.325 68.5855 257.957C65.5206 255.588 68.8642 245.976 76.1085 236.781C83.3529 227.447 91.7118 222.014 94.916 224.382C97.9809 226.75 94.6374 236.363 87.393 245.558Z" fill="#A60006"/>
<path d="M68.7258 257.957C68.7258 257.957 68.5865 257.817 68.3079 257.539C68.1686 257.4 68.0292 257.26 67.8899 256.982C67.7506 256.703 67.6113 256.424 67.472 256.146C67.1934 255.449 67.1934 254.753 67.1934 253.777C67.1934 252.802 67.3327 251.827 67.7506 250.712C68.0293 249.598 68.4472 248.483 69.0045 247.23C69.4224 245.976 70.119 244.861 70.6762 243.607C71.3728 242.354 72.0694 241.1 72.9053 239.846C73.7412 238.592 74.577 237.478 75.5522 236.224C76.5274 235.109 77.5027 233.855 78.4779 232.88C79.4531 231.766 80.5676 230.79 81.5428 229.815C82.518 228.84 83.6325 228.004 84.747 227.168C85.7222 226.332 86.8367 225.775 87.8119 225.218C88.7871 224.661 89.7623 224.243 90.5982 223.964C91.4341 223.685 92.27 223.546 92.9666 223.546C93.2452 223.546 93.6632 223.546 93.8025 223.685C94.0811 223.825 94.2204 223.825 94.3597 223.964C94.6383 224.103 94.7777 224.243 94.7777 224.243C94.7777 224.243 94.6383 224.103 94.3597 223.964C94.2204 223.825 93.9418 223.825 93.8025 223.825C93.5238 223.825 93.2452 223.825 92.9666 223.825C92.27 223.825 91.5734 224.103 90.7376 224.382C89.9017 224.8 89.0658 225.218 88.0906 225.775C87.1154 226.332 86.1402 227.029 85.3043 227.865C84.3291 228.701 83.3539 229.537 82.3787 230.512C81.4035 231.487 80.4283 232.462 79.4531 233.577C78.4779 234.691 77.5026 235.806 76.6668 236.92C75.8309 238.035 74.8557 239.289 74.0198 240.403C73.1839 241.657 72.4873 242.772 71.7907 244.025C71.0942 245.279 70.3976 246.394 69.9797 247.508C69.4224 248.623 69.0044 249.737 68.5865 250.712C68.1686 251.688 68.0292 252.663 67.8899 253.638C67.7506 254.474 67.7506 255.31 67.8899 255.867C67.8899 256.146 68.0292 256.424 68.1686 256.703C68.3079 256.982 68.3079 257.121 68.4472 257.26C68.5865 257.817 68.7258 257.957 68.7258 257.957Z" fill="url(#paint4_linear)"/>
<path d="M164.433 157.65L160.393 153.331C157.746 150.406 148.551 154.307 139.635 161.969C130.858 169.771 125.704 178.408 128.351 181.473L132.391 185.792L164.433 157.65Z" fill="#A60006"/>
<path d="M153.149 177.015C144.372 184.817 135.038 188.717 132.391 185.653C129.744 182.727 134.759 173.95 143.676 166.148C152.452 158.347 161.787 154.446 164.433 157.511C167.08 160.576 162.065 169.353 153.149 177.015Z" fill="#A60006"/>
<path d="M132.531 185.792C132.531 185.792 132.391 185.653 132.252 185.374C132.113 185.235 132.113 185.095 131.973 184.817C131.834 184.538 131.834 184.259 131.834 183.981C131.695 183.284 131.834 182.448 132.113 181.612C132.391 180.777 132.67 179.662 133.227 178.687C133.784 177.712 134.342 176.597 135.038 175.483C135.735 174.368 136.571 173.254 137.407 172.139C138.242 171.024 139.218 169.91 140.332 168.935C141.307 167.82 142.422 166.845 143.536 165.87C144.651 164.895 145.765 163.919 147.019 163.084C148.134 162.248 149.388 161.412 150.641 160.576C151.895 159.879 153.01 159.183 154.264 158.625C155.378 158.068 156.632 157.65 157.607 157.232C158.722 156.814 159.697 156.675 160.672 156.536C161.647 156.396 162.483 156.396 163.04 156.675C163.319 156.814 163.598 156.814 163.876 156.954C164.155 157.093 164.294 157.232 164.434 157.372C164.712 157.65 164.852 157.79 164.852 157.79C164.852 157.79 164.712 157.65 164.434 157.511C164.294 157.372 164.155 157.372 163.876 157.232C163.598 157.093 163.319 157.093 163.04 157.093C162.483 156.954 161.647 157.093 160.811 157.232C159.975 157.372 159 157.79 158.025 158.208C157.05 158.625 155.935 159.183 154.821 159.74C153.706 160.297 152.592 161.133 151.477 161.83C150.363 162.526 149.248 163.501 147.994 164.337C146.88 165.173 145.765 166.148 144.651 167.124C143.536 168.099 142.422 169.074 141.447 170.049C140.471 171.024 139.496 172.139 138.521 173.114C137.685 174.229 136.71 175.204 136.013 176.179C135.317 177.154 134.62 178.13 134.063 179.105C133.506 180.08 133.088 180.916 132.809 181.752C132.531 182.588 132.391 183.284 132.391 183.981C132.391 184.259 132.391 184.538 132.531 184.817C132.531 185.095 132.67 185.235 132.67 185.374C132.391 185.513 132.531 185.792 132.531 185.792Z" fill="url(#paint5_linear)"/>
<path d="M57.1611 214.491C57.1611 214.491 72.9037 170.746 117.206 149.988C117.206 149.988 81.9591 166.148 57.1611 214.491Z" fill="#FFA1A1"/>
<path d="M124.451 171.024C124.451 171.024 111.913 172.557 93.5236 189.275C80.5674 201.116 74.4375 217.695 74.4375 217.695C76.1093 217.277 78.0597 217.416 79.5922 217.556C93.5236 181.752 124.591 171.442 124.451 171.024C124.173 169.213 124.451 171.024 124.451 171.024Z" fill="#A60006"/>
<path d="M104.528 112.512C104.667 113.487 104.946 114.323 105.224 115.02C105.503 115.577 105.642 116.134 105.921 116.413C106.2 116.692 106.478 116.831 106.757 116.831C107.035 116.831 107.453 116.692 107.732 116.552C108.289 116.274 108.847 115.577 109.125 114.881C109.404 114.045 109.543 113.069 109.404 111.955C109.264 110.84 109.125 109.587 108.707 108.193C108.289 106.8 107.732 105.407 107.035 104.014C106.2 102.342 105.224 101.088 104.11 99.9739C102.995 98.9987 101.741 98.1628 100.488 97.7449C99.2338 97.3269 97.8407 97.1876 96.3082 97.4662C94.9151 97.6056 93.3826 98.1628 91.8501 98.9987C89.7604 100.113 88.0886 101.646 86.8348 103.457C85.581 105.268 84.7451 107.358 84.1878 109.587C83.7699 111.816 83.7699 114.184 84.1878 116.692C84.6058 119.199 85.4417 121.707 86.6955 124.075C87.81 126.165 89.0638 127.837 90.457 129.23C91.8501 130.484 93.3826 131.459 94.9151 132.016C96.5868 132.574 98.2586 132.713 99.9304 132.574C101.741 132.295 103.413 131.738 105.224 130.762C106.339 130.205 107.453 129.509 108.289 128.812C109.125 128.115 109.961 127.558 110.658 127.001C111.354 126.444 111.911 125.886 112.329 125.329C112.747 124.772 113.026 124.354 113.305 123.936C113.583 123.518 114.001 123.1 114.28 122.961C114.558 122.822 114.837 122.682 115.116 122.682C115.394 122.682 115.673 122.682 115.952 122.822C116.23 122.961 116.37 123.1 116.648 123.239L118.181 124.911C117.623 125.886 117.066 126.862 116.37 127.698C115.673 128.673 114.837 129.509 114.001 130.484C113.165 131.459 112.051 132.295 110.936 133.131C109.822 133.967 108.568 134.803 107.175 135.499C104.667 136.892 102.159 137.589 99.6518 137.868C97.1441 138.146 94.9151 137.868 92.686 137.171C90.457 136.474 88.3673 135.221 86.5562 133.549C84.6058 131.877 83.0733 129.648 81.6802 127.14C80.5657 125.19 79.8691 123.1 79.3118 121.01C78.7545 118.921 78.6152 116.831 78.6152 114.741C78.6152 112.652 78.8939 110.562 79.3118 108.611C79.8691 106.661 80.5656 104.711 81.5409 102.9C82.5161 101.088 83.7699 99.556 85.163 98.0235C86.5562 96.6304 88.228 95.3765 90.0391 94.4013C91.9895 93.2868 94.0792 92.7296 96.1689 92.4509C98.2586 92.1723 100.348 92.4509 102.299 93.0082C104.249 93.5654 106.06 94.5406 107.732 95.9338C109.404 97.3269 110.797 99.138 112.051 101.367C113.165 103.317 113.862 105.407 114.14 107.497C114.558 109.587 114.558 111.537 114.14 113.348C113.862 115.159 113.165 116.831 112.19 118.363C111.215 119.896 109.961 121.01 108.429 121.846C108.011 122.125 107.453 122.264 107.035 122.404C106.617 122.543 106.06 122.543 105.642 122.543C105.224 122.543 104.667 122.404 104.249 122.125C103.831 121.846 103.274 121.568 102.856 121.15C102.438 122.682 101.741 124.075 101.045 125.051C100.209 126.026 99.3731 126.862 98.2586 127.419C97.4227 127.837 96.5868 128.115 95.7509 128.115C94.9151 128.115 94.2185 127.976 93.5219 127.698C92.8253 127.419 92.1288 127.001 91.5715 126.304C91.0142 125.747 90.457 124.911 90.0391 124.075C89.4818 123.1 89.0638 121.986 88.7852 120.871C88.5066 119.757 88.3673 118.503 88.3673 117.249C88.3673 115.995 88.5066 114.741 88.7852 113.487C89.0638 112.234 89.6211 110.98 90.1784 109.865C90.8749 108.751 91.7108 107.636 92.8253 106.522C93.9399 105.546 95.1937 104.571 96.7261 103.735C97.4227 103.317 97.98 103.039 98.5372 102.9C99.0945 102.621 99.6518 102.482 100.07 102.342C100.627 102.203 101.045 102.064 101.463 102.064C101.881 101.924 102.438 101.924 102.995 101.924L104.528 112.512ZM98.2586 108.333C97.8407 108.472 97.562 108.611 97.1441 108.751C96.3082 109.169 95.751 109.726 95.1937 110.562C94.6364 111.398 94.3578 112.373 94.0792 113.348C93.8005 114.323 93.8005 115.438 93.9398 116.692C94.0792 117.806 94.4971 118.921 94.9151 120.035C95.751 121.568 96.5868 121.986 97.562 121.428C97.8407 121.289 98.1193 121.01 98.3979 120.732C98.6766 120.453 98.8159 120.035 98.9552 119.617C99.0945 119.199 99.2338 118.642 99.2338 118.085C99.2338 117.528 99.2338 116.831 99.0945 115.995L98.2586 108.333Z" fill="#547EFD"/>
<path d="M175.579 86.3211C178.272 86.3211 180.455 84.138 180.455 81.445C180.455 78.7521 178.272 76.569 175.579 76.569C172.886 76.569 170.703 78.7521 170.703 81.445C170.703 84.138 172.886 86.3211 175.579 86.3211Z" fill="#FFB700"/>
<path d="M327.5 365C329.433 365 331 363.433 331 361.5C331 359.567 329.433 358 327.5 358C325.567 358 324 359.567 324 361.5C324 363.433 325.567 365 327.5 365Z" fill="#FFB700"/>
<path d="M359.335 86.0424V85.3458C359.335 80.1912 355.155 76.0117 350.001 76.0117H339.691C334.537 76.0117 330.357 80.1912 330.357 85.3458V86.0424C330.357 91.197 334.537 95.3765 339.691 95.3765H350.001C350.14 95.3765 350.279 95.3765 350.419 95.3765C351.673 97.4662 354.32 99.8345 358.778 100.113C358.778 100.113 355.295 98.4414 354.598 94.1226C357.384 92.5902 359.335 89.5252 359.335 86.0424Z" fill="#FFB700"/>
<path d="M340.806 85.7637C340.806 86.5996 340.11 87.2962 339.274 87.2962C338.438 87.2962 337.741 86.5996 337.741 85.7637C337.741 84.9279 338.438 84.2313 339.274 84.2313C339.97 84.092 340.806 84.7885 340.806 85.7637Z" fill="#FEFEFE"/>
<path d="M346.518 85.7637C346.518 86.5996 345.821 87.2962 344.986 87.2962C344.15 87.2962 343.453 86.5996 343.453 85.7637C343.453 84.9279 344.15 84.2313 344.986 84.2313C345.821 84.092 346.518 84.7885 346.518 85.7637Z" fill="#FEFEFE"/>
<path d="M352.23 85.7637C352.23 86.5996 351.533 87.2962 350.698 87.2962C349.862 87.2962 349.165 86.5996 349.165 85.7637C349.165 84.9279 349.862 84.2313 350.698 84.2313C351.533 84.092 352.23 84.7885 352.23 85.7637Z" fill="#FEFEFE"/>
<defs>
<linearGradient id="paint0_linear" x1="23.2402" y1="-36.1846" x2="328.015" y2="366.648" gradientUnits="userSpaceOnUse">
<stop stop-color="#7148FC"/>
<stop offset="1" stop-color="#5D2BFD"/>
</linearGradient>
<linearGradient id="paint1_linear" x1="350" y1="237.205" x2="479.542" y2="409.399" gradientUnits="userSpaceOnUse">
<stop stop-color="#7148FC"/>
<stop offset="1" stop-color="#5D2BFD"/>
</linearGradient>
<linearGradient id="paint2_linear" x1="5.55036e-06" y1="-11.4702" x2="111.811" y2="136.315" gradientUnits="userSpaceOnUse">
<stop stop-color="#7148FC"/>
<stop offset="1" stop-color="#5D2BFD"/>
</linearGradient>
<linearGradient id="paint3_linear" x1="81" y1="388.487" x2="101.641" y2="415.769" gradientUnits="userSpaceOnUse">
<stop stop-color="#7148FC"/>
<stop offset="1" stop-color="#5D2BFD"/>
</linearGradient>
<linearGradient id="paint4_linear" x1="66.8061" y1="240.827" x2="95.3075" y2="240.827" gradientUnits="userSpaceOnUse">
<stop/>
<stop offset="0.4893" stop-color="#C4171C"/>
<stop offset="1"/>
</linearGradient>
<linearGradient id="paint5_linear" x1="131.085" y1="171.078" x2="165" y2="171.078" gradientUnits="userSpaceOnUse">
<stop/>
<stop offset="0.4893" stop-color="#C4171C"/>
<stop offset="1"/>
</linearGradient>
</defs>
</svg>
