<svg width="288" height="157" viewBox="0 0 288 157" fill="none" xmlns="http://www.w3.org/2000/svg">
<path d="M0 5C0 2.23857 2.23858 0 5 0H283C285.761 0 288 2.23858 288 5V157H0V5Z" fill="#FAFAFA"/>
<path d="M144 104C157.807 104 169 92.8071 169 79C169 65.1929 157.807 54 144 54C130.193 54 119 65.1929 119 79C119 92.8071 130.193 104 144 104Z" fill="#3E8181"/>
<path d="M151.744 67.9355H136.256C134.425 67.9355 132.936 69.4199 132.936 71.2559V86.7441C132.936 88.5752 134.42 90.0645 136.256 90.0645H151.744C151.925 90.0596 152.105 90.0449 152.286 90.0107L152.618 89.9326H152.75L153.16 89.7764L153.302 89.6982C153.414 89.6299 153.536 89.5762 153.644 89.498C153.79 89.3906 153.932 89.2734 154.063 89.1416L154.142 89.0439C154.249 88.9316 154.352 88.8145 154.439 88.6875L154.537 88.5459C154.615 88.4238 154.679 88.292 154.737 88.1602C154.767 88.1064 154.796 88.0527 154.815 87.9941C154.869 87.8623 154.903 87.7158 154.947 87.5742V87.4082C155.011 87.1934 155.045 86.9688 155.06 86.7441V71.2559C155.064 69.4248 153.575 67.9355 151.744 67.9355ZM136.256 87.8525C135.646 87.8525 135.147 87.3594 135.147 86.7441V81.9736L138.785 78.3213C139.215 77.8867 139.918 77.8867 140.348 78.3164L140.353 78.3213L149.869 87.8477H136.256V87.8525ZM152.853 86.7441C152.853 86.8809 152.823 87.0176 152.774 87.1445C152.75 87.1982 152.721 87.252 152.687 87.3008C152.657 87.3496 152.623 87.3936 152.589 87.4326L146.666 81.5098L147.638 80.5381C148.067 80.1035 148.771 80.1035 149.2 80.5332L149.205 80.5381L152.843 84.1904V86.7441H152.853ZM152.853 81.0557L150.772 79C149.459 77.7549 147.398 77.7549 146.08 79L145.108 79.9717L141.92 76.7832C140.606 75.5381 138.546 75.5381 137.228 76.7832L135.147 78.8389V71.2559C135.147 70.6455 135.641 70.1475 136.256 70.1475H151.744C152.354 70.1475 152.853 70.6406 152.853 71.2559V81.0557V81.0557ZM145.66 72.3643C144.742 72.3643 144 73.1064 144 74.0244C144 74.9424 144.742 75.6846 145.66 75.6846C146.578 75.6846 147.32 74.9424 147.32 74.0244C147.32 73.1064 146.578 72.3643 145.66 72.3643Z" fill="white"/>
</svg>
